<svg width="32" height="32" viewBox="0 0 32 32" fill="none" xmlns="http://www.w3.org/2000/svg">
<path d="M0 8C0 3.58172 3.58172 0 8 0H24C28.4183 0 32 3.58172 32 8V24C32 28.4183 28.4183 32 24 32H8C3.58172 32 0 28.4183 0 24V8Z" fill="#7C2938"/>
<path d="M6.39617 21.5C6.27996 21.5 6.18488 21.4633 6.11093 21.39C6.03698 21.3062 6 21.2119 6 21.1071V10.8929C6 10.7776 6.03698 10.6833 6.11093 10.61C6.18488 10.5367 6.27996 10.5 6.39617 10.5H8.39286C8.50907 10.5 8.60415 10.5367 8.67811 10.61C8.75206 10.6833 8.78903 10.7776 8.78903 10.8929V14.3814L11.7207 10.7986C11.7629 10.7357 11.8316 10.6729 11.9267 10.61C12.0323 10.5367 12.1697 10.5 12.3387 10.5H14.6206C14.7157 10.5 14.795 10.5367 14.8584 10.61C14.9217 10.6729 14.9534 10.7462 14.9534 10.83C14.9534 10.9033 14.9376 10.9662 14.9059 11.0186L11.1027 15.7643L15.1911 20.9814C15.2334 21.0233 15.2545 21.0862 15.2545 21.17C15.2545 21.2538 15.2228 21.3324 15.1594 21.4057C15.0961 21.4686 15.0168 21.5 14.9217 21.5H12.5606C12.3704 21.5 12.2225 21.4581 12.1169 21.3743C12.0218 21.2905 11.9584 21.2276 11.9267 21.1857L8.78903 17.3043V21.1071C8.78903 21.2119 8.75206 21.3062 8.67811 21.39C8.60415 21.4633 8.50907 21.5 8.39286 21.5H6.39617Z" fill="white"/>
<path d="M16.9039 21.5C16.7877 21.5 16.6927 21.4633 16.6187 21.39C16.5448 21.3062 16.5078 21.2119 16.5078 21.1071V10.8929C16.5078 10.7776 16.5448 10.6833 16.6187 10.61C16.6927 10.5367 16.7877 10.5 16.9039 10.5H21.0241C22.0594 10.5 22.9416 10.6676 23.6705 11.0029C24.3995 11.3276 24.9594 11.8095 25.3503 12.4486C25.7412 13.0771 25.9525 13.8576 25.9842 14.79C25.9947 15.251 26 15.6543 26 16C26 16.3457 25.9947 16.7438 25.9842 17.1943C25.9419 18.1686 25.7306 18.9752 25.3503 19.6143C24.9805 20.2533 24.4365 20.73 23.7181 21.0443C23.0102 21.3481 22.1387 21.5 21.1033 21.5H16.9039ZM19.3602 19.2371H21.0241C21.4784 19.2371 21.8534 19.169 22.1492 19.0329C22.4556 18.8862 22.6827 18.661 22.8306 18.3571C22.9891 18.0533 23.0736 17.6552 23.0842 17.1629C23.1053 16.859 23.1159 16.5867 23.1159 16.3457C23.1264 16.1048 23.1264 15.8638 23.1159 15.6229C23.1159 15.3819 23.1053 15.1148 23.0842 14.8214C23.0631 14.109 22.8729 13.5905 22.5137 13.2657C22.1651 12.9305 21.6421 12.7629 20.9449 12.7629H19.3602V19.2371Z" fill="white"/>
</svg>
